<svg width="20" height="24" viewBox="0 0 20 24" fill="none" xmlns="http://www.w3.org/2000/svg">
<g clip-path="url(#clip0_1_488)">
<path d="M15.5982 2.42236C15.8616 1.80168 15.6652 1.07681 15.125 0.678134C14.5849 0.279455 13.8482 0.315699 13.3438 0.759682L1.91522 10.9079C1.46879 11.3066 1.30807 11.9454 1.51789 12.5071C1.72772 13.0689 2.26343 13.4495 2.85718 13.4495H7.83486L4.40182 21.5771C4.13843 22.1977 4.33486 22.9226 4.87504 23.3213C5.41521 23.72 6.15182 23.6837 6.65629 23.2397L18.0849 13.0916C18.5313 12.6929 18.692 12.0541 18.4822 11.4923C18.2724 10.9305 17.7411 10.5545 17.1429 10.5545H12.1652L15.5982 2.42236Z" fill="#0B0A0C"/>
</g>
<defs>
<clipPath id="clip0_1_488">
<rect width="20" height="23.1959" fill="white" transform="translate(0 0.401855)"/>
</clipPath>
</defs>
</svg>
