<svg width="19" height="22" viewBox="0 0 19 22" fill="none" xmlns="http://www.w3.org/2000/svg">
<g clip-path="url(#clip0_1_481)">
<path d="M6.74496 0.231652C7.07523 -0.0820202 7.58755 -0.0777233 7.91782 0.235949C9.08644 1.34884 10.1831 2.54767 11.2077 3.84532C11.6735 3.22657 12.2028 2.55196 12.7744 2.00196C13.1089 1.684 13.6254 1.684 13.9599 2.00626C15.4249 3.42423 16.6655 5.29767 17.5378 7.07657C18.3973 8.8297 18.9689 10.6215 18.9689 11.8848C18.9689 17.3676 14.7432 21.9996 9.48444 21.9996C4.16638 21.9996 0 17.3633 0 11.8805C0 10.2305 0.753675 8.21525 1.92229 6.2215C3.10361 4.19767 4.77186 2.0879 6.74496 0.231652ZM9.55642 17.8746C10.6277 17.8746 11.5761 17.5738 12.4695 16.9723C14.2521 15.709 14.7305 13.1824 13.6593 11.1973C13.5407 10.9567 13.4222 10.716 13.2443 10.4754L11.1019 13.002C11.1019 13.002 7.6553 8.5504 7.41396 8.24962C5.63562 10.4754 4.74222 11.7387 4.74222 13.1824C4.74222 16.1301 6.88469 17.8746 9.55642 17.8746Z" fill="#0B0A0C"/>
</g>
<defs>
<clipPath id="clip0_1_481">
<rect width="18.9689" height="22" fill="white"/>
</clipPath>
</defs>
</svg>
