<svg width="20" height="24" viewBox="0 0 20 24" fill="none" xmlns="http://www.w3.org/2000/svg">
<g clip-path="url(#clip0_1_493)">
<path d="M14.9999 2.71415C14.9999 1.53111 14.0401 0.571289 12.8571 0.571289C11.6741 0.571289 10.7142 1.53111 10.7142 2.71415C10.7142 3.89718 11.6741 4.857 12.8571 4.857C14.0401 4.857 14.9999 3.89718 14.9999 2.71415ZM6.32584 8.40611C6.7678 7.96415 7.37048 7.71415 7.99995 7.71415C8.08477 7.71415 8.16959 7.71861 8.24995 7.72754L6.85709 11.9106C6.44191 13.1606 6.93298 14.5356 8.05352 15.2365L11.9017 17.6427L10.7678 21.607C10.5491 22.3659 10.991 23.1561 11.7499 23.3749C12.5089 23.5936 13.2991 23.1516 13.5178 22.3927L14.7991 17.9106C15.0624 16.9909 14.683 16.0088 13.8749 15.5043L11.3392 13.9195L12.7187 10.2409L12.9464 10.79C13.616 12.3883 15.1741 13.4284 16.9062 13.4284H17.8571C18.6473 13.4284 19.2857 12.79 19.2857 11.9999C19.2857 11.2097 18.6473 10.5713 17.8571 10.5713H16.9062C16.3303 10.5713 15.808 10.2231 15.5892 9.69182L15.308 9.02218C14.6562 7.45522 13.3392 6.25879 11.7142 5.75879L9.54012 5.08915C9.04459 4.93736 8.52673 4.857 8.00441 4.857C6.62048 4.857 5.29013 5.40611 4.31245 6.38825L3.27673 7.4195C2.7187 7.97754 2.7187 8.88379 3.27673 9.44182C3.83477 9.99986 4.74102 9.99986 5.29905 9.44182L6.3303 8.41058L6.32584 8.40611ZM4.78566 16.2856H2.1428C1.35263 16.2856 0.714233 16.924 0.714233 17.7141C0.714233 18.5043 1.35263 19.1427 2.1428 19.1427H5.24995C6.09816 19.1427 6.86602 18.6427 7.20977 17.8704L7.72316 16.7141L7.29905 16.4463C6.5178 15.9597 5.93745 15.2499 5.60709 14.4418L4.78566 16.2856Z" fill="#0B0A0C"/>
</g>
<defs>
<clipPath id="clip0_1_493">
<rect width="20" height="22.8571" fill="white" transform="translate(0 0.571289)"/>
</clipPath>
</defs>
</svg>
