<svg width="20" height="20" viewBox="0 0 20 20" fill="none" xmlns="http://www.w3.org/2000/svg">
<path d="M12.2422 1.28525C13.2578 1.48838 13.918 2.47666 13.7148 3.49229L13.625 3.9376C13.418 4.98057 13.0352 5.97275 12.5 6.8751H18.125C19.1602 6.8751 20 7.71494 20 8.7501C20 9.73838 19.2383 10.547 18.2695 10.6212C18.5703 10.9532 18.75 11.3946 18.75 11.8751C18.75 12.7892 18.0938 13.5509 17.2305 13.7149C17.4023 13.9962 17.5 14.3321 17.5 14.6876C17.5 15.5196 16.957 16.2267 16.207 16.4688C16.2344 16.5978 16.25 16.7345 16.25 16.8751C16.25 17.9103 15.4102 18.7501 14.375 18.7501H11.5039C10.7617 18.7501 10.0391 18.5313 9.42188 18.1212L7.91797 17.1173C6.875 16.422 6.25 15.2501 6.25 13.9962V12.5001V10.6251V9.65244C6.25 8.51182 6.76953 7.4376 7.65625 6.72275L7.94531 6.49228C8.98047 5.66416 9.6875 4.5001 9.94531 3.20322L10.0352 2.75791C10.2383 1.74228 11.2266 1.08213 12.2422 1.28525ZM1.25 7.5001H3.75C4.44141 7.5001 5 8.05869 5 8.7501V17.5001C5 18.1915 4.44141 18.7501 3.75 18.7501H1.25C0.558594 18.7501 0 18.1915 0 17.5001V8.7501C0 8.05869 0.558594 7.5001 1.25 7.5001Z" fill="#0B0A0C"/>
</svg>
